<svg width="146" height="49" viewBox="0 0 146 49" fill="none" xmlns="http://www.w3.org/2000/svg">
<rect x="0.5" y="0.5" width="145" height="48" rx="24" fill="white" stroke="#1E33A4"/>
<path d="M47.4212 22H46.0121C45.9287 21.5947 45.7829 21.2386 45.5746 20.9318C45.37 20.625 45.12 20.3674 44.8246 20.1591C44.5329 19.947 44.209 19.7879 43.853 19.6818C43.4969 19.5758 43.1257 19.5227 42.7393 19.5227C42.0348 19.5227 41.3965 19.7008 40.8246 20.0568C40.2564 20.4129 39.8037 20.9375 39.4666 21.6307C39.1333 22.3239 38.9666 23.1742 38.9666 24.1818C38.9666 25.1894 39.1333 26.0398 39.4666 26.733C39.8037 27.4261 40.2564 27.9508 40.8246 28.3068C41.3965 28.6629 42.0348 28.8409 42.7393 28.8409C43.1257 28.8409 43.4969 28.7879 43.853 28.6818C44.209 28.5758 44.5329 28.4186 44.8246 28.2102C45.12 27.9981 45.37 27.7386 45.5746 27.4318C45.7829 27.1212 45.9287 26.7652 46.0121 26.3636H47.4212C47.3151 26.9583 47.1219 27.4905 46.8416 27.9602C46.5613 28.4299 46.2128 28.8295 45.7962 29.1591C45.3795 29.4848 44.9117 29.733 44.3928 29.9034C43.8776 30.0739 43.3265 30.1591 42.7393 30.1591C41.7469 30.1591 40.8643 29.9167 40.0916 29.4318C39.3189 28.947 38.7109 28.2576 38.2678 27.3636C37.8246 26.4697 37.603 25.4091 37.603 24.1818C37.603 22.9545 37.8246 21.8939 38.2678 21C38.7109 20.1061 39.3189 19.4167 40.0916 18.9318C40.8643 18.447 41.7469 18.2045 42.7393 18.2045C43.3265 18.2045 43.8776 18.2898 44.3928 18.4602C44.9117 18.6307 45.3795 18.8807 45.7962 19.2102C46.2128 19.536 46.5613 19.9337 46.8416 20.4034C47.1219 20.8693 47.3151 21.4015 47.4212 22ZM52.0845 30.2045C51.5315 30.2045 51.0296 30.1004 50.5788 29.892C50.1281 29.6799 49.7701 29.375 49.505 28.9773C49.2398 28.5758 49.1072 28.0909 49.1072 27.5227C49.1072 27.0227 49.2057 26.6174 49.4027 26.3068C49.5997 25.9924 49.8629 25.7462 50.1925 25.5682C50.522 25.3902 50.8857 25.2576 51.2834 25.1705C51.6849 25.0795 52.0883 25.0076 52.4936 24.9545C53.0239 24.8864 53.4538 24.8352 53.7834 24.8011C54.1167 24.7633 54.3591 24.7008 54.5107 24.6136C54.666 24.5265 54.7436 24.375 54.7436 24.1591V24.1136C54.7436 23.553 54.5902 23.1174 54.2834 22.8068C53.9804 22.4962 53.5201 22.3409 52.9027 22.3409C52.2625 22.3409 51.7607 22.4811 51.397 22.7614C51.0334 23.0417 50.7777 23.3409 50.63 23.6591L49.3572 23.2045C49.5845 22.6742 49.8875 22.2614 50.2663 21.9659C50.6489 21.6667 51.0656 21.4583 51.5163 21.3409C51.9709 21.2197 52.4179 21.1591 52.8572 21.1591C53.1375 21.1591 53.4595 21.1932 53.8232 21.2614C54.1906 21.3258 54.5447 21.4602 54.8857 21.6648C55.2304 21.8693 55.5163 22.178 55.7436 22.5909C55.9709 23.0038 56.0845 23.5568 56.0845 24.25V30H54.7436V28.8182H54.6754C54.5845 29.0076 54.433 29.2102 54.2209 29.4261C54.0088 29.642 53.7266 29.8258 53.3743 29.9773C53.022 30.1288 52.5921 30.2045 52.0845 30.2045ZM52.2891 29C52.8194 29 53.2663 28.8958 53.63 28.6875C53.9974 28.4792 54.2739 28.2102 54.4595 27.8807C54.6489 27.5511 54.7436 27.2045 54.7436 26.8409V25.6136C54.6868 25.6818 54.5618 25.7443 54.3686 25.8011C54.1792 25.8542 53.9595 25.9015 53.7095 25.9432C53.4633 25.9811 53.2228 26.0152 52.9879 26.0455C52.7569 26.072 52.5694 26.0947 52.4254 26.1136C52.0769 26.1591 51.7512 26.233 51.4482 26.3352C51.1489 26.4337 50.9065 26.5833 50.7209 26.7841C50.5391 26.9811 50.4482 27.25 50.4482 27.5909C50.4482 28.0568 50.6205 28.4091 50.9652 28.6477C51.3137 28.8826 51.755 29 52.2891 29ZM61.8274 30.1818C61.1001 30.1818 60.4581 29.9981 59.9013 29.6307C59.3445 29.2595 58.9089 28.7367 58.5945 28.0625C58.2801 27.3845 58.1229 26.5833 58.1229 25.6591C58.1229 24.7424 58.2801 23.947 58.5945 23.2727C58.9089 22.5985 59.3464 22.0777 59.907 21.7102C60.4676 21.3428 61.1153 21.1591 61.8501 21.1591C62.4183 21.1591 62.8672 21.2538 63.1967 21.4432C63.5301 21.6288 63.7839 21.8409 63.9581 22.0795C64.1361 22.3144 64.2744 22.5076 64.3729 22.6591H64.4865V18.3636H65.8274V30H64.532V28.6591H64.3729C64.2744 28.8182 64.1342 29.0189 63.9524 29.2614C63.7706 29.5 63.5111 29.714 63.174 29.9034C62.8369 30.089 62.388 30.1818 61.8274 30.1818ZM62.0092 28.9773C62.5471 28.9773 63.0017 28.8371 63.3729 28.5568C63.7441 28.2727 64.0263 27.8807 64.2195 27.3807C64.4126 26.8769 64.5092 26.2955 64.5092 25.6364C64.5092 24.9848 64.4145 24.4148 64.2251 23.9261C64.0357 23.4337 63.7554 23.0511 63.3842 22.7784C63.013 22.5019 62.5547 22.3636 62.0092 22.3636C61.4411 22.3636 60.9676 22.5095 60.5888 22.8011C60.2138 23.089 59.9316 23.4811 59.7422 23.9773C59.5566 24.4697 59.4638 25.0227 59.4638 25.6364C59.4638 26.2576 59.5585 26.822 59.7479 27.3295C59.9411 27.8333 60.2251 28.2348 60.6001 28.5341C60.9789 28.8295 61.4486 28.9773 62.0092 28.9773ZM71.0376 30.2045C70.4846 30.2045 69.9827 30.1004 69.532 29.892C69.0812 29.6799 68.7232 29.375 68.4581 28.9773C68.1929 28.5758 68.0604 28.0909 68.0604 27.5227C68.0604 27.0227 68.1589 26.6174 68.3558 26.3068C68.5528 25.9924 68.8161 25.7462 69.1456 25.5682C69.4751 25.3902 69.8388 25.2576 70.2365 25.1705C70.638 25.0795 71.0414 25.0076 71.4467 24.9545C71.977 24.8864 72.407 24.8352 72.7365 24.8011C73.0698 24.7633 73.3123 24.7008 73.4638 24.6136C73.6191 24.5265 73.6967 24.375 73.6967 24.1591V24.1136C73.6967 23.553 73.5433 23.1174 73.2365 22.8068C72.9335 22.4962 72.4732 22.3409 71.8558 22.3409C71.2157 22.3409 70.7138 22.4811 70.3501 22.7614C69.9865 23.0417 69.7308 23.3409 69.5831 23.6591L68.3104 23.2045C68.5376 22.6742 68.8407 22.2614 69.2195 21.9659C69.602 21.6667 70.0187 21.4583 70.4695 21.3409C70.924 21.2197 71.371 21.1591 71.8104 21.1591C72.0907 21.1591 72.4126 21.1932 72.7763 21.2614C73.1437 21.3258 73.4979 21.4602 73.8388 21.6648C74.1835 21.8693 74.4695 22.178 74.6967 22.5909C74.924 23.0038 75.0376 23.5568 75.0376 24.25V30H73.6967V28.8182H73.6286C73.5376 29.0076 73.3861 29.2102 73.174 29.4261C72.9619 29.642 72.6797 29.8258 72.3274 29.9773C71.9751 30.1288 71.5452 30.2045 71.0376 30.2045ZM71.2422 29C71.7725 29 72.2195 28.8958 72.5831 28.6875C72.9505 28.4792 73.227 28.2102 73.4126 27.8807C73.602 27.5511 73.6967 27.2045 73.6967 26.8409V25.6136C73.6399 25.6818 73.5149 25.7443 73.3217 25.8011C73.1323 25.8542 72.9126 25.9015 72.6626 25.9432C72.4164 25.9811 72.1759 26.0152 71.9411 26.0455C71.71 26.072 71.5225 26.0947 71.3786 26.1136C71.0301 26.1591 70.7043 26.233 70.4013 26.3352C70.102 26.4337 69.8596 26.5833 69.674 26.7841C69.4922 26.9811 69.4013 27.25 69.4013 27.5909C69.4013 28.0568 69.5736 28.4091 69.9183 28.6477C70.2668 28.8826 70.7081 29 71.2422 29ZM83.6669 23.2273L82.4624 23.5682C82.3866 23.3674 82.2749 23.1723 82.1271 22.983C81.9832 22.7898 81.7862 22.6307 81.5362 22.5057C81.2862 22.3807 80.9661 22.3182 80.576 22.3182C80.0419 22.3182 79.5968 22.4413 79.2408 22.6875C78.8885 22.9299 78.7124 23.2386 78.7124 23.6136C78.7124 23.947 78.8336 24.2102 79.076 24.4034C79.3184 24.5966 79.6972 24.7576 80.2124 24.8864L81.5078 25.2045C82.2881 25.3939 82.8696 25.6837 83.2521 26.0739C83.6347 26.4602 83.826 26.9583 83.826 27.5682C83.826 28.0682 83.6821 28.5152 83.3942 28.9091C83.1101 29.303 82.7124 29.6136 82.201 29.8409C81.6896 30.0682 81.0949 30.1818 80.4169 30.1818C79.5268 30.1818 78.79 29.9886 78.2067 29.6023C77.6233 29.2159 77.254 28.6515 77.0987 27.9091L78.3714 27.5909C78.4927 28.0606 78.7218 28.4129 79.0589 28.6477C79.3999 28.8826 79.8449 29 80.3942 29C81.0192 29 81.5154 28.8674 81.8828 28.6023C82.254 28.3333 82.4396 28.0114 82.4396 27.6364C82.4396 27.3333 82.3336 27.0795 82.1214 26.875C81.9093 26.6667 81.5836 26.5114 81.1442 26.4091L79.6896 26.0682C78.8904 25.8788 78.3033 25.5852 77.9283 25.1875C77.5571 24.786 77.3714 24.2841 77.3714 23.6818C77.3714 23.1894 77.5097 22.7538 77.7862 22.375C78.0665 21.9962 78.4472 21.6989 78.9283 21.483C79.4131 21.267 79.9624 21.1591 80.576 21.1591C81.4396 21.1591 82.1177 21.3485 82.6101 21.7273C83.1063 22.1061 83.4586 22.6061 83.6669 23.2273ZM89.6399 21.2727V22.4091H85.1172V21.2727H89.6399ZM86.4354 19.1818H87.7763V27.5C87.7763 27.8788 87.8312 28.1629 87.9411 28.3523C88.0547 28.5379 88.1986 28.6629 88.3729 28.7273C88.5509 28.7879 88.7384 28.8182 88.9354 28.8182C89.0831 28.8182 89.2043 28.8106 89.299 28.7955C89.3937 28.7765 89.4695 28.7614 89.5263 28.75L89.799 29.9545C89.7081 29.9886 89.5812 30.0227 89.4183 30.0568C89.2554 30.0947 89.049 30.1136 88.799 30.1136C88.4202 30.1136 88.049 30.0322 87.6854 29.8693C87.3255 29.7064 87.0263 29.4583 86.7876 29.125C86.5528 28.7917 86.4354 28.3712 86.4354 27.8636V19.1818ZM91.657 30V21.2727H92.9524V22.5909H93.0433C93.2024 22.1591 93.4903 21.8087 93.907 21.5398C94.3236 21.2708 94.7933 21.1364 95.3161 21.1364C95.4145 21.1364 95.5376 21.1383 95.6854 21.142C95.8331 21.1458 95.9448 21.1515 96.0206 21.1591V22.5227C95.9751 22.5114 95.871 22.4943 95.7081 22.4716C95.549 22.4451 95.3804 22.4318 95.2024 22.4318C94.7782 22.4318 94.3994 22.5208 94.0661 22.6989C93.7365 22.8731 93.4751 23.1155 93.282 23.4261C93.0926 23.733 92.9979 24.0833 92.9979 24.4773V30H91.657ZM100.178 30.2045C99.6252 30.2045 99.1233 30.1004 98.6726 29.892C98.2218 29.6799 97.8639 29.375 97.5987 28.9773C97.3336 28.5758 97.201 28.0909 97.201 27.5227C97.201 27.0227 97.2995 26.6174 97.4964 26.3068C97.6934 25.9924 97.9567 25.7462 98.2862 25.5682C98.6158 25.3902 98.9794 25.2576 99.3771 25.1705C99.7786 25.0795 100.182 25.0076 100.587 24.9545C101.118 24.8864 101.548 24.8352 101.877 24.8011C102.21 24.7633 102.453 24.7008 102.604 24.6136C102.76 24.5265 102.837 24.375 102.837 24.1591V24.1136C102.837 23.553 102.684 23.1174 102.377 22.8068C102.074 22.4962 101.614 22.3409 100.996 22.3409C100.356 22.3409 99.8544 22.4811 99.4908 22.7614C99.1271 23.0417 98.8714 23.3409 98.7237 23.6591L97.451 23.2045C97.6783 22.6742 97.9813 22.2614 98.3601 21.9659C98.7427 21.6667 99.1593 21.4583 99.6101 21.3409C100.065 21.2197 100.512 21.1591 100.951 21.1591C101.231 21.1591 101.553 21.1932 101.917 21.2614C102.284 21.3258 102.638 21.4602 102.979 21.6648C103.324 21.8693 103.61 22.178 103.837 22.5909C104.065 23.0038 104.178 23.5568 104.178 24.25V30H102.837V28.8182H102.769C102.678 29.0076 102.527 29.2102 102.315 29.4261C102.103 29.642 101.82 29.8258 101.468 29.9773C101.116 30.1288 100.686 30.2045 100.178 30.2045ZM100.383 29C100.913 29 101.36 28.8958 101.724 28.6875C102.091 28.4792 102.368 28.2102 102.553 27.8807C102.743 27.5511 102.837 27.2045 102.837 26.8409V25.6136C102.781 25.6818 102.656 25.7443 102.462 25.8011C102.273 25.8542 102.053 25.9015 101.803 25.9432C101.557 25.9811 101.317 26.0152 101.082 26.0455C100.851 26.072 100.663 26.0947 100.519 26.1136C100.171 26.1591 99.8449 26.233 99.5419 26.3352C99.2427 26.4337 99.0002 26.5833 98.8146 26.7841C98.6328 26.9811 98.5419 27.25 98.5419 27.5909C98.5419 28.0568 98.7143 28.4091 99.0589 28.6477C99.4074 28.8826 99.8487 29 100.383 29ZM106.626 30V21.2727H107.921V22.5909H108.012C108.171 22.1591 108.459 21.8087 108.876 21.5398C109.292 21.2708 109.762 21.1364 110.285 21.1364C110.383 21.1364 110.506 21.1383 110.654 21.142C110.802 21.1458 110.914 21.1515 110.989 21.1591V22.5227C110.944 22.5114 110.84 22.4943 110.677 22.4716C110.518 22.4451 110.349 22.4318 110.171 22.4318C109.747 22.4318 109.368 22.5208 109.035 22.6989C108.705 22.8731 108.444 23.1155 108.251 23.4261C108.061 23.733 107.967 24.0833 107.967 24.4773V30H106.626Z" fill="#1E33A4"/>
</svg>
