<svg width="154" height="57" viewBox="0 0 154 57" fill="none" xmlns="http://www.w3.org/2000/svg">
<g filter="url(#filter0_d_2_23)">
<rect x="4" width="146" height="49" rx="24.5" fill="#1E33A4"/>
<path d="M45.2056 31V16.4545H55.0067V18.9901H48.2809V22.456H54.5025V24.9915H48.2809V28.4645H55.0352V31H45.2056ZM60.4205 24.6932V31H57.3949V20.0909H60.2784V22.0156H60.4062C60.6477 21.3812 61.0526 20.8793 61.6207 20.5099C62.1889 20.1359 62.8778 19.9489 63.6875 19.9489C64.4451 19.9489 65.1056 20.1146 65.669 20.446C66.2325 20.7775 66.6705 21.2509 66.983 21.8665C67.2955 22.4773 67.4517 23.2064 67.4517 24.054V31H64.4261V24.5938C64.4309 23.9261 64.2604 23.4053 63.9148 23.0312C63.5691 22.6525 63.0933 22.4631 62.4872 22.4631C62.08 22.4631 61.7202 22.5507 61.4077 22.7259C61.0999 22.901 60.8584 23.1567 60.6832 23.4929C60.5128 23.8243 60.4252 24.2244 60.4205 24.6932ZM75.6388 20.0909V22.3636H69.0692V20.0909H75.6388ZM70.5607 17.4773H73.5863V27.6477C73.5863 27.9271 73.6289 28.1449 73.7141 28.3011C73.7994 28.4527 73.9177 28.5592 74.0692 28.6207C74.2255 28.6823 74.4054 28.7131 74.609 28.7131C74.7511 28.7131 74.8931 28.7012 75.0352 28.6776C75.1772 28.6491 75.2861 28.6278 75.3619 28.6136L75.8377 30.8651C75.6862 30.9124 75.4731 30.9669 75.1985 31.0284C74.9239 31.0947 74.5901 31.1349 74.1971 31.1491C73.4679 31.1776 72.8287 31.0805 72.2795 30.858C71.735 30.6354 71.3112 30.2898 71.0082 29.821C70.7051 29.3523 70.556 28.7604 70.5607 28.0455V17.4773ZM77.6097 31V20.0909H80.543V21.9943H80.6566C80.8555 21.3172 81.1893 20.8059 81.658 20.4602C82.1268 20.1098 82.6665 19.9347 83.2773 19.9347C83.4289 19.9347 83.5922 19.9441 83.7674 19.9631C83.9426 19.982 84.0965 20.008 84.229 20.0412V22.7259C84.087 22.6832 83.8905 22.6454 83.6396 22.6122C83.3886 22.5791 83.159 22.5625 82.9506 22.5625C82.5056 22.5625 82.1078 22.6596 81.7575 22.8537C81.4118 23.0431 81.1372 23.3082 80.9336 23.6491C80.7347 23.9901 80.6353 24.383 80.6353 24.8281V31H77.6097ZM88.5916 31.206C87.8956 31.206 87.2753 31.0852 86.7308 30.8438C86.1863 30.5975 85.7554 30.2353 85.4382 29.7571C85.1257 29.2741 84.9695 28.6728 84.9695 27.9531C84.9695 27.3471 85.0807 26.8381 85.3033 26.4261C85.5258 26.0142 85.8288 25.6828 86.2124 25.4318C86.5959 25.1809 87.0315 24.9915 87.5192 24.8636C88.0116 24.7358 88.5277 24.6458 89.0675 24.5938C89.7019 24.5275 90.2133 24.4659 90.6016 24.4091C90.9898 24.3475 91.2715 24.2576 91.4467 24.1392C91.6219 24.0208 91.7095 23.8456 91.7095 23.6136V23.571C91.7095 23.1212 91.5675 22.7732 91.2834 22.527C91.004 22.2808 90.6063 22.1577 90.0902 22.1577C89.5457 22.1577 89.1125 22.2784 88.7905 22.5199C88.4685 22.7566 88.2554 23.0549 88.1513 23.4148L85.353 23.1875C85.495 22.5246 85.7744 21.9517 86.1911 21.4688C86.6077 20.9811 87.1451 20.607 87.8033 20.3466C88.4661 20.0814 89.2332 19.9489 90.1044 19.9489C90.7105 19.9489 91.2905 20.0199 91.8445 20.1619C92.4032 20.304 92.898 20.5241 93.3288 20.8224C93.7644 21.1207 94.1077 21.5043 94.3587 21.973C94.6096 22.437 94.7351 22.9934 94.7351 23.642V31H91.8658V29.4872H91.7805C91.6054 29.8281 91.371 30.1288 91.0774 30.3892C90.7839 30.6449 90.4311 30.8461 90.0192 30.9929C89.6072 31.1349 89.1314 31.206 88.5916 31.206ZM89.4581 29.1179C89.9032 29.1179 90.2962 29.0303 90.6371 28.8551C90.978 28.6752 91.2455 28.4337 91.4396 28.1307C91.6338 27.8277 91.7308 27.4844 91.7308 27.1009V25.9432C91.6361 26.0047 91.5059 26.0616 91.3402 26.1136C91.1792 26.161 90.9969 26.206 90.7933 26.2486C90.5897 26.2865 90.3861 26.322 90.1825 26.3551C89.9789 26.3835 89.7943 26.4096 89.6286 26.4332C89.2734 26.4853 88.9633 26.5682 88.6982 26.6818C88.433 26.7955 88.227 26.9493 88.0803 27.1435C87.9335 27.3329 87.8601 27.5696 87.8601 27.8537C87.8601 28.2656 88.0092 28.5805 88.3075 28.7983C88.6106 29.0114 88.9941 29.1179 89.4581 29.1179ZM97.0824 31V20.0909H100.016V21.9943H100.129C100.328 21.3172 100.662 20.8059 101.131 20.4602C101.599 20.1098 102.139 19.9347 102.75 19.9347C102.902 19.9347 103.065 19.9441 103.24 19.9631C103.415 19.982 103.569 20.008 103.702 20.0412V22.7259C103.56 22.6832 103.363 22.6454 103.112 22.6122C102.861 22.5791 102.632 22.5625 102.423 22.5625C101.978 22.5625 101.58 22.6596 101.23 22.8537C100.884 23.0431 100.61 23.3082 100.406 23.6491C100.207 23.9901 100.108 24.383 100.108 24.8281V31H97.0824Z" fill="white"/>
</g>
<defs>
<filter id="filter0_d_2_23" x="0" y="0" width="154" height="57" filterUnits="userSpaceOnUse" color-interpolation-filters="sRGB">
<feFlood flood-opacity="0" result="BackgroundImageFix"/>
<feColorMatrix in="SourceAlpha" type="matrix" values="0 0 0 0 0 0 0 0 0 0 0 0 0 0 0 0 0 0 127 0" result="hardAlpha"/>
<feOffset dy="4"/>
<feGaussianBlur stdDeviation="2"/>
<feComposite in2="hardAlpha" operator="out"/>
<feColorMatrix type="matrix" values="0 0 0 0 0 0 0 0 0 0 0 0 0 0 0 0 0 0 0.25 0"/>
<feBlend mode="normal" in2="BackgroundImageFix" result="effect1_dropShadow_2_23"/>
<feBlend mode="normal" in="SourceGraphic" in2="effect1_dropShadow_2_23" result="shape"/>
</filter>
</defs>
</svg>
